#ldb 1
v -0.5 -0.5 -0.5
#ldf 2
v -0.5 -0.5  0.5
#ltb 3
v -0.5  0.5 -0.5
#ltf 4
v -0.5  0.5  0.5
#rdb 5
v  0.5 -0.5 -0.5
#rdf 6
v  0.5 -0.5  0.5
#rtb 7
v  0.5  0.5 -0.5
#rtf 8
v  0.5  0.5  0.5

# v1, v2, v3, v5, v7
vt 0 0
# v4
vt 0 1
# v8
vt 1 0
# v6
vt 1 1

vn  1  0  0
vn -1  0  0
vn  0  1  0
vn  0 -1  0
vn  0  0  1
vn  0  0 -1
 
# front
f 4/1/5 2/2/5 6/4/5
f 4/1/5 6/4/5 8/3/5

# back
f 7/1/6 5/1/6 1/1/6
f 7/1/6 1/1/6 3/1/6

# top
f 3/1/3 4/1/3 8/1/3
f 3/1/3 8/1/3 7/1/3

# bottom
f 2/1/4 1/1/4 5/1/4
f 2/1/4 5/1/4 6/1/4

#left
f 3/1/2 1/1/2 2/1/2
f 3/1/2 2/1/2 4/1/2

#right
f 8/1/1 6/1/1 5/1/1
f 8/1/1 5/1/1 7/1/1